<svg id="svg" version="1.1" xmlns="http://www.w3.org/2000/svg" xmlns:xlink="http://www.w3.org/1999/xlink" width="400" height="400" viewBox="0, 0, 400,400"><g id="svgg"><path id="path0" d="M130.963 40.189 C 93.101 62.049,62.024 80.033,61.905 80.152 C 61.669 80.388,130.596 120.313,131.238 120.313 C 131.623 120.313,199.139 81.456,199.709 80.906 C 199.871 80.749,199.959 62.581,199.904 40.532 L 199.805 0.442 130.963 40.189 M303.921 100.610 C 285.131 111.466,269.725 120.384,269.687 120.428 C 269.649 120.472,269.496 156.367,269.347 200.195 L 269.075 279.883 301.602 298.633 C 319.492 308.945,335.152 317.964,336.401 318.675 L 338.672 319.967 338.672 200.413 C 338.672 134.659,338.540 80.863,338.379 80.866 C 338.218 80.870,322.712 89.755,303.921 100.610 M131.154 240.253 L 131.055 280.116 96.406 300.116 C 70.326 315.170,61.872 320.225,62.226 320.553 C 62.733 321.024,199.505 400.000,199.814 400.000 C 199.916 400.000,200.000 381.933,200.000 359.851 L 200.000 319.702 165.828 299.988 C 139.174 284.611,131.779 280.181,132.214 279.855 C 132.520 279.625,147.983 270.660,166.575 259.933 C 185.167 249.206,200.381 240.341,200.385 240.233 C 200.391 240.018,131.866 200.391,131.487 200.391 C 131.359 200.391,131.209 218.329,131.154 240.253 " stroke="none" fill="#04abeb" fill-rule="evenodd"></path><path id="path1" d="M200.486 40.668 L 200.586 80.981 233.903 100.219 C 252.228 110.800,267.556 119.694,267.966 119.983 C 268.641 120.458,265.460 122.382,234.453 140.255 C 215.611 151.115,200.218 160.160,200.246 160.355 C 200.326 160.912,268.911 200.382,269.236 200.058 C 269.397 199.899,269.572 181.856,269.627 159.961 L 269.727 120.153 304.025 100.348 C 322.890 89.455,338.324 80.421,338.325 80.273 C 338.325 80.124,308.037 62.518,271.018 41.148 C 233.999 19.778,202.963 1.857,202.049 1.324 L 200.387 0.356 200.486 40.668 M61.719 200.365 L 61.719 319.955 63.379 318.987 C 64.292 318.454,79.805 309.493,97.852 299.074 L 130.664 280.129 130.950 223.756 C 131.107 192.751,131.195 156.865,131.145 144.011 L 131.055 120.638 96.875 100.898 C 78.076 90.041,62.476 81.072,62.207 80.967 C 61.817 80.814,61.719 104.852,61.719 200.365 M234.570 299.930 L 200.195 319.780 200.096 359.890 C 200.037 383.556,200.141 400.000,200.349 400.000 C 201.041 400.000,338.086 320.672,338.086 320.271 C 338.086 319.952,270.958 280.857,269.336 280.230 C 269.121 280.147,253.477 289.012,234.570 299.930 " stroke="none" fill="#2c3494" fill-rule="evenodd"></path><path id="path2" d="M200.188 40.430 C 200.188 62.559,200.235 71.554,200.293 60.419 C 200.351 49.285,200.351 31.179,200.293 20.185 C 200.235 9.191,200.188 18.301,200.188 40.430 " stroke="none" fill="#147cc4" fill-rule="evenodd"></path><path id="path3" d="" stroke="none" fill="#205baf" fill-rule="evenodd"></path><path id="path4" d="M130.859 240.313 C 130.752 262.377,130.797 280.297,130.959 280.135 C 131.121 279.973,131.209 261.920,131.154 240.018 L 131.055 200.195 130.859 240.313 " stroke="none" fill="#196fbf" fill-rule="evenodd"></path></g></svg>